<svg width="753" height="706" viewBox="0 0 753 706" fill="none" xmlns="http://www.w3.org/2000/svg">
<g clip-path="url(#clip0_2_120)">
<path fill-rule="evenodd" clip-rule="evenodd" d="M550.879 150.6C566.119 150.6 580.555 147.159 593.454 141.012C609.732 165.878 637.835 182.305 669.774 182.305C698.857 182.305 724.759 168.685 741.449 147.474C745.105 149.715 748.967 151.652 753 153.251V507.284C753 533.55 731.708 554.842 705.442 554.842H102.408L0 705.442V507.322V507.284V47.5579C0 21.2924 21.2924 0 47.5579 0H418.138C427.102 12.6044 439.851 22.3302 454.726 27.5205C452.815 35.2052 451.8 43.2446 451.8 51.521C451.8 106.241 496.159 150.6 550.879 150.6ZM253.642 87.1895C253.642 94.664 250.193 101.333 244.8 105.693L264.107 166.453H531.063C566.084 166.453 594.474 194.842 594.474 229.863V317.053C594.474 352.073 566.084 380.463 531.063 380.463H229.863C194.842 380.463 166.453 352.073 166.453 317.053V229.863C166.453 194.842 194.842 166.453 229.863 166.453H247.473L229.843 110.968C216.72 110.957 206.084 100.315 206.084 87.1895C206.084 74.0567 216.73 63.4105 229.863 63.4105C242.996 63.4105 253.642 74.0567 253.642 87.1895ZM495.395 332.905C528.226 332.905 554.842 306.289 554.842 273.458C554.842 240.626 528.226 214.011 495.395 214.011C462.563 214.011 435.947 240.626 435.947 273.458C435.947 306.289 462.563 332.905 495.395 332.905ZM332.905 273.458C332.905 306.289 306.289 332.905 273.458 332.905C240.626 332.905 214.011 306.289 214.011 273.458C214.011 240.626 240.626 214.011 273.458 214.011C306.289 214.011 332.905 240.626 332.905 273.458Z" fill="#660066"/>
</g>
<defs>
<clipPath id="clip0_2_120">
<rect width="753" height="705.442" fill="white"/>
</clipPath>
</defs>
</svg>
