<svg width="713" height="734" viewBox="0 0 713 734" fill="none" xmlns="http://www.w3.org/2000/svg">
<g clip-path="url(#clip0_2_111)">
<path fill-rule="evenodd" clip-rule="evenodd" d="M569.14 135.717L555.894 115.476L534.061 125.884C526.438 129.518 517.892 131.566 508.791 131.566C476.295 131.566 449.951 105.214 449.951 72.7076C449.951 67.7492 450.559 62.9711 451.688 58.4277L457.786 33.9112L433.94 25.5884C426.459 22.9773 419.987 18.0572 415.428 11.6444L407.149 0H392.864H69.2233C30.9923 0 0 31.0022 0 69.2453V470.868V470.901V643.981V733.972L50.5864 659.556L131.782 540.113H643.777C682.007 540.113 713 509.111 713 470.868V161.58V142.767L695.514 135.832C693.486 135.028 691.541 134.051 689.693 132.918L668.693 120.044L653.462 139.405C643.911 151.548 629.177 159.264 612.626 159.264C594.463 159.264 578.458 149.956 569.14 135.717ZM643.777 512.415H117.126L55.3786 603.248L27.6893 643.981V594.724V470.901V470.868V69.2453C27.6893 46.2994 46.2847 27.6981 69.2233 27.6981H392.864C400.693 38.7095 411.827 47.206 424.818 51.7404C423.148 58.4538 422.262 65.4772 422.262 72.7076C422.262 120.512 461.002 159.264 508.791 159.264C522.101 159.264 534.708 156.258 545.973 150.888C560.19 172.611 584.733 186.962 612.626 186.962C629.324 186.962 644.821 181.819 657.621 173.031C662.461 169.708 666.915 165.865 670.902 161.58C672.411 159.959 673.852 158.276 675.223 156.533C678.416 158.491 681.789 160.183 685.311 161.58V164.473V186.28V470.868C685.311 493.814 666.715 512.415 643.777 512.415ZM249.204 103.868C249.204 110.398 246.192 116.224 241.482 120.033L258.343 173.113H491.485C522.07 173.113 546.864 197.915 546.864 228.509V304.679C546.864 335.274 522.07 360.075 491.485 360.075H228.437C197.852 360.075 173.058 335.274 173.058 304.679V228.509C173.058 197.915 197.852 173.113 228.437 173.113H243.816L228.42 124.642C216.958 124.632 207.67 115.335 207.67 103.868C207.67 92.3947 216.967 83.0943 228.437 83.0943C239.906 83.0943 249.204 92.3947 249.204 103.868ZM460.335 318.528C489.008 318.528 512.252 295.276 512.252 266.594C512.252 237.912 489.008 214.66 460.335 214.66C431.662 214.66 408.417 237.912 408.417 266.594C408.417 295.276 431.662 318.528 460.335 318.528ZM318.427 266.594C318.427 295.276 295.183 318.528 266.51 318.528C237.837 318.528 214.592 295.276 214.592 266.594C214.592 237.912 237.837 214.66 266.51 214.66C295.183 214.66 318.427 237.912 318.427 266.594Z" fill="white"/>
</g>
<defs>
<clipPath id="clip0_2_111">
<rect width="713" height="734" fill="white"/>
</clipPath>
</defs>
</svg>
